PathFileType	4	(X/Y/Z)	/Users/itak/Documents/Research/Walk-IL/dataset/trc/00074_00006.trc
DataRate	CameraRate	NumFrames	NumMarkers	Units	OrigDataRate	OrigDataStartFrame	OrigNumFrames
100.000000	100.000000	4	53	mm	100.000000	269	718
Frame#	Time	RPSI			LPSI			L3			STRN			T10			C7			CLAV			RBAK			LBAK			LSHO			LUPA			LAEL			LAOL			LWTS			LWPS			LFRA			LIFD			LHPS			LHTS			RSHO			RUPA			RAEL			RAOL			RWTS			RWPS			RFRA			RIFD			RHTS			RHPS			RBHD			LFHD			RFHD			LBHD			LHIP			RHIP			RASI			LASI			LKNE			LTHI			LANK			LTIP			LTOE			LMT1			LMT5			LHEE			RKNE			RTHI			RANK			RTIP			RTOE			RMT1			RMT5			RHEE			
		X1	Y1	Z1	X2	Y2	Z2	X3	Y3	Z3	X4	Y4	Z4	X5	Y5	Z5	X6	Y6	Z6	X7	Y7	Z7	X8	Y8	Z8	X9	Y9	Z9	X10	Y10	Z10	X11	Y11	Z11	X12	Y12	Z12	X13	Y13	Z13	X14	Y14	Z14	X15	Y15	Z15	X16	Y16	Z16	X17	Y17	Z17	X18	Y18	Z18	X19	Y19	Z19	X20	Y20	Z20	X21	Y21	Z21	X22	Y22	Z22	X23	Y23	Z23	X24	Y24	Z24	X25	Y25	Z25	X26	Y26	Z26	X27	Y27	Z27	X28	Y28	Z28	X29	Y29	Z29	X30	Y30	Z30	X31	Y31	Z31	X32	Y32	Z32	X33	Y33	Z33	X34	Y34	Z34	X35	Y35	Z35	X36	Y36	Z36	X37	Y37	Z37	X38	Y38	Z38	X39	Y39	Z39	X40	Y40	Z40	X41	Y41	Z41	X42	Y42	Z42	X43	Y43	Z43	X44	Y44	Z44	X45	Y45	Z45	X46	Y46	Z46	X47	Y47	Z47	X48	Y48	Z48	X49	Y49	Z49	X50	Y50	Z50	X51	Y51	Z51	X52	Y52	Z52	X53	Y53	Z53	

270	2.69	-447.5798034667969	990.5549926757812	327.5132141113281	-617.0513916015625	999.6634521484375	329.0097351074219	-542.1836547851562	1054.459838867188	326.1327514648438	-511.5116577148438	1244.832763671875	68.15689849853516	-557.6429443359375	1184.923828125	332.3902282714844	-553.4633178710938	1452.715087890625	269.4085388183594	-515.6158447265625	1359.614624023438	95.82288360595703	-492.0457763671875	1313.471801757812	347.1546020507812	-654.3529052734375	1414.329345703125	274.1268615722656	-706.130859375	1418.814086914062	160.4692840576172	-790.4536743164062	1297.501586914062	161.6573333740234	-829.118896484375	1090.679931640625	119.6292114257812	-755.697021484375	1061.232421875	192.1287231445312	-763.9542846679688	866.1290893554688	-0.5175142884254456	-829.36767578125	847.2544555664062	49.32063293457031	-839.2333374023438	985.9605712890625	81.82657623291016	-751.9021606445312	686.60546875	-48.49144744873047	-825.4866333007812	774.9542846679688	1.338679671287537	-769.1553344726562	790.8831787109375	-39.51139450073242	-370.4555969238281	1414.397827148438	243.595703125	-313.027099609375	1351.603759765625	275.3790283203125	-270.9369201660156	1102.797119140625	348.9294738769531	-351.3927917480469	1068.061279296875	303.7467956542969	-240.3959503173828	855.3109741210938	194.6094055175781	-214.5910339355469	838.4744873046875	276.8163452148438	-248.9972686767578	1020.150024414062	341.0397644042969	-246.6968231201172	663.6522827148438	181.8176879882812	-230.7232055664062	750.5037841796875	173.4538879394531	-200.2349548339844	749.9318237304688	243.6681365966797	-607.035888671875	1643.791137695312	164.2654418945312	-393.3809814453125	1644.36181640625	136.1734771728516	-476.334716796875	1671.1923828125	44.70344161987305	-511.5692138671875	1607.773559570312	256.6270141601562	-711.0441284179688	939.9686889648438	229.3835601806641	-370.2392883300781	916.318115234375	260.2821044921875	-389.7770690917969	936.4190673828125	135.4055480957031	-658.5255737304688	938.5076293945312	116.5295028686523	-683.8668212890625	472.6931457519531	248.5480194091797	-710.7949829101562	619.66943359375	247.1089782714844	-709.7132568359375	76.99485015869141	536.4893188476562	-712.7731323242188	272.4220275878906	406.556396484375	-724.1163330078125	41.83788299560547	341.5263366699219	-666.9805297851562	46.67090606689453	379.0266418457031	-756.85888671875	38.0579719543457	447.0325012207031	-628.69189453125	98.98170471191406	577.1534423828125	-419.0876159667969	503.8627624511719	42.22917556762695	-366.7794799804688	755.7755126953125	138.7410125732422	-497.5777893066406	33.62971496582031	-30.19390296936035	-430.0329895019531	379.4745788574219	24.01369285583496	-445.0812683105469	96.22442626953125	-224.0453186035156	-503.9883422851562	81.17031097412109	-192.9389495849609	-431.7015075683594	64.45865631103516	-127.4923477172852	-568.160400390625	32.51111221313477	-15.24438381195068	
271	2.7	-446.9803771972656	991.5217895507812	318.7512512207031	-616.52783203125	999.8729858398438	318.1510314941406	-541.25439453125	1054.457275390625	315.5089111328125	-506.7998046875	1245.406982421875	58.80268096923828	-556.3580322265625	1185.394653320312	322.6335754394531	-550.6600952148438	1453.123779296875	259.9772644042969	-511.0433959960938	1360.141845703125	86.62494659423828	-490.3967895507812	1313.7080078125	338.2713623046875	-651.6896362304688	1414.99072265625	263.5772705078125	-702.2362060546875	1419.50927734375	149.2944641113281	-786.5529174804688	1298.163330078125	149.9668884277344	-824.8949584960938	1091.244262695312	108.6048812866211	-751.7405395507812	1062.03125	181.5520935058594	-759.4234619140625	866.2455444335938	-10.38400268554688	-824.9707641601562	847.513671875	39.36101150512695	-834.9010620117188	986.379150390625	71.25010681152344	-747.3814697265625	686.7090454101562	-57.9533805847168	-820.92724609375	775.048095703125	-8.374361991882324	-764.343017578125	790.912109375	-49.11731338500977	-367.4550476074219	1414.4814453125	236.1879119873047	-310.5203552246094	1351.448120117188	268.457275390625	-270.1200561523438	1102.279663085938	341.80615234375	-349.6812744140625	1067.481689453125	295.1554565429688	-238.2344970703125	854.42431640625	188.6594543457031	-213.6780090332031	837.79345703125	271.2685241699219	-248.4230041503906	1019.705993652344	334.2513122558594	-244.5195617675781	662.779296875	176.2004852294922	-228.41162109375	749.5870361328125	167.9355316162109	-198.9775085449219	749.11181640625	238.5548706054688	-603.1607055664062	1644.320068359375	154.4819030761719	-389.2112426757812	1644.982421875	128.6533966064453	-471.1773071289062	1671.777221679688	36.27174758911133	-508.7224426269531	1608.344970703125	247.8018341064453	-709.3680419921875	940.0005493164062	217.4014739990234	-368.8045043945312	917.3150024414062	252.6634063720703	-386.7309265136719	937.335693359375	127.5934982299805	-655.0169067382812	938.6773681640625	105.3471984863281	-683.3524780273438	471.3641052246094	234.5284271240234	-709.6124267578125	619.0746459960938	233.4414672851562	-712.0518798828125	82.54583740234375	533.8883666992188	-713.9976806640625	275.3056640625	398.2403259277344	-724.0853271484375	41.87520599365234	342.0918273925781	-667.4650268554688	46.99103546142578	378.6275329589844	-757.73583984375	38.95784378051758	445.8634338378906	-631.3757934570312	107.2915191650391	573.7647094726562	-416.6409606933594	505.4896545410156	32.52599716186523	-364.6273193359375	757.3096313476562	129.462158203125	-497.0239868164062	34.08003997802734	-31.35199165344238	-427.6587829589844	380.2432556152344	15.00179958343506	-447.07421875	90.91699981689453	-228.0176849365234	-505.4166870117188	76.86309051513672	-195.6873016357422	-432.35595703125	62.27014541625977	-130.4879913330078	-567.5340576171875	33.52545547485352	-15.79403686523438	
272	2.71	-446.2408447265625	992.7626342773438	310.0420532226562	-615.8544311523438	1000.2802734375	307.3052062988281	-540.1653442382812	1054.766723632812	304.9230041503906	-501.9615173339844	1246.313720703125	49.51665496826172	-554.952392578125	1186.145263671875	312.9324951171875	-547.8131103515625	1453.75927734375	250.5396423339844	-506.43017578125	1360.987060546875	77.50804901123047	-488.6926879882812	1314.248901367188	329.3936157226562	-648.97509765625	1415.925048828125	253.0404205322266	-698.276123046875	1420.499755859375	138.1649932861328	-782.5691528320312	1299.12890625	138.3360900878906	-820.4649658203125	1092.080200195312	97.70984649658203	-747.6170654296875	1063.175903320312	171.1183624267578	-754.7922973632812	866.4805908203125	-19.89462471008301	-820.4878540039062	847.98974609375	29.76623725891113	-830.4201049804688	987.0547485351562	60.88419723510742	-742.8635864257812	686.8422241210938	-66.80546569824219	-816.3211669921875	775.288330078125	-17.62068176269531	-759.4758911132812	790.9841918945312	-58.26775360107422	-364.4585876464844	1414.944702148438	228.7981109619141	-307.9884033203125	1351.685913085938	261.5520324707031	-269.294189453125	1102.15478515625	334.5905151367188	-347.7449645996094	1067.179809570312	286.2499084472656	-236.1182250976562	853.8378295898438	182.7119598388672	-212.7667541503906	837.4935913085938	265.68603515625	-247.860107421875	1019.660400390625	327.3865356445312	-242.4119415283203	662.2123413085938	170.7392272949219	-226.1801910400391	748.9563598632812	162.4773406982422	-197.7642211914062	748.6497802734375	233.4855499267578	-599.188720703125	1645.095336914062	144.7073059082031	-384.9793701171875	1645.8193359375	121.1696853637695	-465.9361572265625	1672.557250976562	27.88711929321289	-505.7683715820312	1609.172729492188	238.9568939208984	-707.457275390625	940.2674560546875	205.2810668945312	-367.1578979492188	918.60205078125	245.1749114990234	-383.3718872070312	938.5792236328125	119.9288482666016	-651.1476440429688	939.1828002929688	94.16641998291016	-683.0457153320312	470.1690063476562	219.1450653076172	-708.343994140625	618.624755859375	218.8413391113281	-714.6932373046875	88.94883728027344	530.4972534179688	-715.4718627929688	278.718017578125	388.7941589355469	-724.0803833007812	41.84243774414062	342.7974243164062	-668.0682983398438	47.45831298828125	378.0591430664062	-758.820068359375	40.19618988037109	444.3790588378906	-634.4359130859375	116.688346862793	569.2564697265625	-414.1102905273438	507.2185668945312	23.1361026763916	-362.3389892578125	758.9085083007812	120.5250625610352	-496.3716735839844	34.54678726196289	-32.42166137695312	-425.2211608886719	381.120849609375	6.336368083953857	-448.9751586914062	86.09477996826172	-231.5766296386719	-506.73193359375	73.05807495117188	-198.0784149169922	-432.8996276855469	60.37861633300781	-133.2346038818359	-566.7946166992188	34.54766082763672	-16.23834609985352	
273	2.72	-445.3307495117188	994.1342163085938	301.4099731445312	-614.9835205078125	1000.828552246094	296.5127258300781	-538.9130859375	1055.352416992188	294.4930114746094	-497.0138549804688	1247.488403320312	40.33037567138672	-553.4347534179688	1187.087646484375	303.2769470214844	-544.9524536132812	1454.559692382812	241.1351470947266	-501.7921752929688	1362.088745117188	68.50590515136719	-486.9496459960938	1315.017333984375	320.5436096191406	-646.2345581054688	1417.05859375	242.5375823974609	-694.2627563476562	1421.728759765625	127.1062850952148	-778.5289306640625	1300.358520507812	126.7565536499023	-815.8655395507812	1093.147094726562	86.94974517822266	-743.3778076171875	1064.625122070312	160.8369903564453	-750.0619506835938	866.8150024414062	-29.07754898071289	-815.9407348632812	848.661376953125	20.48238754272461	-825.8206787109375	987.951904296875	50.70989227294922	-738.2845458984375	686.965087890625	-75.0325927734375	-811.6637573242188	775.65087890625	-26.44256019592285	-754.5386352539062	791.0689086914062	-66.98338317871094	-361.4888610839844	1415.737670898438	221.4531402587891	-305.4427490234375	1352.279663085938	254.6909637451172	-268.4524230957031	1102.410034179688	327.3499755859375	-345.575927734375	1067.134643554688	277.0986022949219	-234.0518646240234	853.5700073242188	176.7486724853516	-211.8296508789062	837.5789184570312	260.0481872558594	-247.28857421875	1019.986877441406	320.5070190429688	-240.4145660400391	661.9459838867188	165.45703125	-224.0536346435547	748.610595703125	157.0716247558594	-196.5739593505859	748.5556030273438	228.4404144287109	-595.1423950195312	1646.05615234375	134.9643249511719	-380.7079162597656	1646.78515625	113.7364654541016	-460.634033203125	1673.4541015625	19.57367324829102	-502.7333068847656	1610.1845703125	230.1348266601562	-705.2850952148438	940.7339477539062	193.0937652587891	-365.3052062988281	920.0228271484375	237.8153686523438	-379.7072448730469	940.0436401367188	112.407112121582	-646.954345703125	939.9827880859375	83.03519439697266	-682.9239501953125	469.1420288085938	202.4089813232422	-707.0039672851562	618.3076782226562	203.3272247314453	-717.6597900390625	96.26138305664062	526.1448364257812	-717.1861572265625	282.6400756835938	378.1126098632812	-724.1471557617188	41.68778991699219	343.5291442871094	-668.8350219726562	48.14726638793945	377.2198486328125	-760.13525390625	41.90390014648438	442.48828125	-637.9173583984375	127.1330490112305	563.4774169921875	-411.5877685546875	508.8659057617188	14.19813919067383	-359.9083557128906	760.4124145507812	111.9916000366211	-495.7377624511719	34.99251556396484	-33.41318511962891	-422.856689453125	381.95166015625	-1.808676838874817	-450.5888366699219	81.69230651855469	-234.6712188720703	-507.7882385253906	69.67830657958984	-200.1412658691406	-433.303955078125	58.74805068969727	-135.6377868652344	-566.0584716796875	35.52238082885742	-16.65753555297852	
